<svg width="1280" height="720" xmlns="http://www.w3.org/2000/svg" xmlns:xlink="http://www.w3.org/1999/xlink" overflow="hidden"><g><rect x="0" y="0" width="1280" height="720" fill="#3E5C76"/><text fill="#FFFFFF" font-family="Calibri,Calibri_MSFontService,sans-serif" font-weight="400" font-size="13" transform="translate(1167.75 670)">1</text><text fill="#A6A6A6" font-family="Calibri,Calibri_MSFontService,sans-serif" font-weight="400" font-size="8" transform="translate(1013.67 668)">Document Classification: KPMG Public</text><path d="M155.59 673.216 152.94 673.216 153.379 671.506 148.07 671.506 147.633 673.216 145.069 673.216 145.069 672.864C145.109 672.673 145.143 672.471 145.191 672.255 145.659 670.41 146.899 668.586 149.045 668.586 149.893 668.586 150.736 668.903 150.621 670.048L153.78 670.048C153.905 669.521 154.113 668.602 153.518 667.764 152.843 666.854 151.488 666.489 149.729 666.489 148.478 666.489 146.649 666.684 145.069 667.692L145.069 658.381 155.59 658.381ZM149.382 675.723C148.799 675.833 148.207 675.891 147.613 675.898 146.096 675.898 145.04 675.21 145.019 673.604L149.919 673.604ZM143.318 667.251 143.318 669.377C142.663 670.261 142.187 671.259 141.917 672.318 141.837 672.613 141.781 672.913 141.75 673.216L140.204 673.216 141.525 667.093 137.077 667.093 133.098 673.219 132.806 673.219 132.806 658.386 143.324 658.386ZM137.446 673.216 135.863 673.216 138.258 669.537ZM131.059 667.079 128.427 667.079 126.628 673.216 123.832 673.216C125.253 672.703 126.119 671.722 126.387 670.266 126.606 669.135 126.502 668.391 126.027 667.833 125.318 667.004 123.897 667.076 122.636 667.076L120.547 667.076 120.547 658.386 131.056 658.386ZM129.377 673.216 130.483 669.377 130.523 673.216ZM121.723 671.758 121.723 671.758C121.621 671.758 121.518 671.77 121.401 671.77 121.248 671.77 121.128 671.77 121.015 671.77L120.342 671.77 120.653 670.647 120.8 670.089 121.16 668.781C121.317 668.781 121.47 668.781 121.617 668.781L122.137 668.781C123.037 668.781 123.589 668.831 123.794 669.11 123.951 669.321 123.931 669.683 123.746 670.234 123.429 671.183 123.026 671.666 121.734 671.763M118.811 667.629 118.645 668.156 117.141 673.045 117.082 673.221 112.12 673.221 111.733 672.418 117.064 667.093 113.645 667.093 109.471 671.485 110.822 667.093 108.289 667.093 108.289 658.386 118.8 658.386ZM144.67 657.991 144.67 667.972C144.327 668.238 144.011 668.535 143.725 668.859L143.725 657.991 132.405 657.991 132.405 667.079 131.468 667.079 131.468 657.991 120.144 657.991 120.144 667.093 119.208 667.093 119.208 657.991 107.888 657.991 107.888 668.365 104.995 677.771 107.537 677.771 108.813 673.606 109.173 673.606 111.279 677.771 114.365 677.771 112.312 673.606 116.952 673.606 115.664 677.771 118.442 677.771 119.712 673.618 120.32 673.618 120.32 673.606 126.502 673.606 125.277 677.759 128.076 677.759 129.264 673.606 130.523 673.606 130.557 677.759 132.905 677.759 135.604 673.606 137.369 673.606 136.458 677.759 139.211 677.759 140.111 673.606 141.705 673.606C141.642 674.894 141.978 676.065 142.852 676.851 143.921 677.808 145.562 677.991 146.775 677.991 148.499 677.971 150.216 677.765 151.895 677.378L152.848 673.606 155.995 673.606 155.995 657.991Z" fill="#FFFFFF" fill-rule="evenodd"/><text fill="#FFFFFF" font-family="Calibri Light,Calibri Light_MSFontService,sans-serif" font-weight="300" font-size="53" transform="translate(114.923 88)">Timeline</text><path d="M103 367 1172.37 367 1172.37 371 103 371ZM1161.38 360.273 1176.34 369 1161.38 377.728C1160.43 378.284 1159.2 377.962 1158.65 377.008 1158.09 376.054 1158.41 374.829 1159.37 374.273L1171.37 367.273 1171.37 370.728 1159.37 363.728C1158.41 363.171 1158.09 361.946 1158.65 360.992 1159.2 360.038 1160.43 359.716 1161.38 360.273Z" fill="#FFC000"/><path d="M198 368.5C198 363.253 202.029 359 207 359 211.971 359 216 363.253 216 368.5 216 373.747 211.971 378 207 378 202.029 378 198 373.747 198 368.5Z" stroke="#FFC000" stroke-width="4" stroke-miterlimit="8" fill="#44546A" fill-rule="evenodd"/><path d="M305 368.5C305 363.253 309.253 359 314.5 359 319.747 359 324 363.253 324 368.5 324 373.747 319.747 378 314.5 378 309.253 378 305 373.747 305 368.5Z" stroke="#FFC000" stroke-width="4" stroke-miterlimit="8" fill="#44546A" fill-rule="evenodd"/><text fill="#FFFFFF" font-family="Calibri,Calibri_MSFontService,sans-serif" font-weight="700" font-size="20" transform="translate(220.181 446)">Date 2022</text><text fill="#FFFFFF" font-family="Calibri,Calibri_MSFontService,sans-serif" font-weight="400" font-size="13" transform="translate(220.181 470)">Lorem ipsum dolor sit amet,</text><text fill="#FFFFFF" font-family="Calibri,Calibri_MSFontService,sans-serif" font-weight="400" font-size="13" transform="translate(220.181 487)">consectetuer adipiscing elit.</text><text fill="#FFFFFF" font-family="Calibri,Calibri_MSFontService,sans-serif" font-weight="400" font-size="13" transform="translate(220.181 505)">Donec odio. Quisque volutpat</text><text fill="#FFFFFF" font-family="Calibri,Calibri_MSFontService,sans-serif" font-weight="400" font-size="13" transform="translate(220.181 522)">mattis eros. Nullam malesuada</text><text fill="#FFFFFF" font-family="Calibri,Calibri_MSFontService,sans-serif" font-weight="400" font-size="13" transform="translate(220.181 540)">erat ut turpis</text><text fill="#FFFFFF" font-family="Calibri,Calibri_MSFontService,sans-serif" font-weight="400" font-size="13" transform="translate(291.181 540)">.</text><text fill="#FFFFFF" font-family="Calibri,Calibri_MSFontService,sans-serif" font-weight="400" font-size="13" transform="translate(297.515 540)">Lorem ipsum</text><text fill="#FFFFFF" font-family="Calibri,Calibri_MSFontService,sans-serif" font-weight="400" font-size="13" transform="translate(220.181 558)">dolor sit amet</text><text fill="#FFFFFF" font-family="Calibri,Calibri_MSFontService,sans-serif" font-weight="400" font-size="13" transform="translate(295.681 558)">.</text><path d="M314.5 174.5 314.5 342.983" stroke="#FFFFFF" stroke-width="1.33333" stroke-miterlimit="8" stroke-dasharray="5.33333 4" fill="none" fill-rule="evenodd"/><text fill="#FFFFFF" font-family="Calibri,Calibri_MSFontService,sans-serif" font-weight="700" font-size="20" transform="translate(329.804 194)">Date 2022</text><text fill="#FFFFFF" font-family="Calibri,Calibri_MSFontService,sans-serif" font-weight="400" font-size="13" transform="translate(329.804 218)">Lorem ipsum dolor sit amet,</text><text fill="#FFFFFF" font-family="Calibri,Calibri_MSFontService,sans-serif" font-weight="400" font-size="13" transform="translate(329.804 235)">consectetuer adipiscing elit.</text><text fill="#FFFFFF" font-family="Calibri,Calibri_MSFontService,sans-serif" font-weight="400" font-size="13" transform="translate(329.804 253)">Donec odio. Quisque volutpat</text><text fill="#FFFFFF" font-family="Calibri,Calibri_MSFontService,sans-serif" font-weight="400" font-size="13" transform="translate(329.804 270)">mattis eros. Nullam malesuada</text><text fill="#FFFFFF" font-family="Calibri,Calibri_MSFontService,sans-serif" font-weight="400" font-size="13" transform="translate(329.804 288)">erat ut turpis</text><text fill="#FFFFFF" font-family="Calibri,Calibri_MSFontService,sans-serif" font-weight="400" font-size="13" transform="translate(400.804 288)">.</text><text fill="#FFFFFF" font-family="Calibri,Calibri_MSFontService,sans-serif" font-weight="400" font-size="13" transform="translate(407.137 288)">Lorem ipsum</text><text fill="#FFFFFF" font-family="Calibri,Calibri_MSFontService,sans-serif" font-weight="400" font-size="13" transform="translate(329.804 306)">dolor sit amet</text><text fill="#FFFFFF" font-family="Calibri,Calibri_MSFontService,sans-serif" font-weight="400" font-size="13" transform="translate(405.304 306)">.</text><path d="M207.5 394.5 207.5 562.983" stroke="#FFFFFF" stroke-width="1.33333" stroke-miterlimit="8" stroke-dasharray="5.33333 4" fill="none" fill-rule="evenodd"/><path d="M489 368.5C489 363.253 493.253 359 498.5 359 503.747 359 508 363.253 508 368.5 508 373.747 503.747 378 498.5 378 493.253 378 489 373.747 489 368.5Z" stroke="#FFC000" stroke-width="4" stroke-miterlimit="8" fill="#44546A" fill-rule="evenodd"/><text fill="#FFFFFF" font-family="Calibri,Calibri_MSFontService,sans-serif" font-weight="700" font-size="20" transform="translate(511.691 446)">Date 2022</text><text fill="#FFFFFF" font-family="Calibri,Calibri_MSFontService,sans-serif" font-weight="400" font-size="13" transform="translate(511.691 470)">Lorem ipsum dolor sit amet,</text><text fill="#FFFFFF" font-family="Calibri,Calibri_MSFontService,sans-serif" font-weight="400" font-size="13" transform="translate(511.691 487)">consectetuer adipiscing elit.</text><text fill="#FFFFFF" font-family="Calibri,Calibri_MSFontService,sans-serif" font-weight="400" font-size="13" transform="translate(511.691 505)">Donec odio. Quisque volutpat</text><text fill="#FFFFFF" font-family="Calibri,Calibri_MSFontService,sans-serif" font-weight="400" font-size="13" transform="translate(511.691 522)">mattis eros. Nullam malesuada</text><text fill="#FFFFFF" font-family="Calibri,Calibri_MSFontService,sans-serif" font-weight="400" font-size="13" transform="translate(511.691 540)">erat ut turpis</text><text fill="#FFFFFF" font-family="Calibri,Calibri_MSFontService,sans-serif" font-weight="400" font-size="13" transform="translate(582.691 540)">.</text><text fill="#FFFFFF" font-family="Calibri,Calibri_MSFontService,sans-serif" font-weight="400" font-size="13" transform="translate(589.024 540)">Lorem ipsum</text><text fill="#FFFFFF" font-family="Calibri,Calibri_MSFontService,sans-serif" font-weight="400" font-size="13" transform="translate(511.691 558)">dolor sit amet</text><text fill="#FFFFFF" font-family="Calibri,Calibri_MSFontService,sans-serif" font-weight="400" font-size="13" transform="translate(587.191 558)">.</text><path d="M498.5 394.5 498.5 562.983" stroke="#FFFFFF" stroke-width="1.33333" stroke-miterlimit="8" stroke-dasharray="5.33333 4" fill="none" fill-rule="evenodd"/><path d="M615 368.5C615 363.253 619.253 359 624.5 359 629.747 359 634 363.253 634 368.5 634 373.747 629.747 378 624.5 378 619.253 378 615 373.747 615 368.5Z" stroke="#FFC000" stroke-width="4" stroke-miterlimit="8" fill="#44546A" fill-rule="evenodd"/><path d="M625.5 174.5 625.5 342.983" stroke="#FFFFFF" stroke-width="1.33333" stroke-miterlimit="8" stroke-dasharray="5.33333 4" fill="none" fill-rule="evenodd"/><text fill="#FFFFFF" font-family="Calibri,Calibri_MSFontService,sans-serif" font-weight="700" font-size="20" transform="translate(640.348 194)">Date 2022</text><text fill="#FFFFFF" font-family="Calibri,Calibri_MSFontService,sans-serif" font-weight="400" font-size="13" transform="translate(640.348 218)">Lorem ipsum dolor sit amet,</text><text fill="#FFFFFF" font-family="Calibri,Calibri_MSFontService,sans-serif" font-weight="400" font-size="13" transform="translate(640.348 235)">consectetuer adipiscing elit.</text><text fill="#FFFFFF" font-family="Calibri,Calibri_MSFontService,sans-serif" font-weight="400" font-size="13" transform="translate(640.348 253)">Donec odio. Quisque volutpat</text><text fill="#FFFFFF" font-family="Calibri,Calibri_MSFontService,sans-serif" font-weight="400" font-size="13" transform="translate(640.348 270)">mattis eros. Nullam malesuada</text><text fill="#FFFFFF" font-family="Calibri,Calibri_MSFontService,sans-serif" font-weight="400" font-size="13" transform="translate(640.348 288)">erat ut turpis</text><text fill="#FFFFFF" font-family="Calibri,Calibri_MSFontService,sans-serif" font-weight="400" font-size="13" transform="translate(711.348 288)">.</text><text fill="#FFFFFF" font-family="Calibri,Calibri_MSFontService,sans-serif" font-weight="400" font-size="13" transform="translate(717.681 288)">Lorem ipsum</text><text fill="#FFFFFF" font-family="Calibri,Calibri_MSFontService,sans-serif" font-weight="400" font-size="13" transform="translate(640.348 306)">dolor sit amet</text><text fill="#FFFFFF" font-family="Calibri,Calibri_MSFontService,sans-serif" font-weight="400" font-size="13" transform="translate(715.848 306)">.</text><path d="M891 368.5C891 363.253 895.253 359 900.5 359 905.747 359 910 363.253 910 368.5 910 373.747 905.747 378 900.5 378 895.253 378 891 373.747 891 368.5Z" stroke="#FFC000" stroke-width="4" stroke-miterlimit="8" fill="#44546A" fill-rule="evenodd"/><path d="M901.5 174.5 901.5 342.983" stroke="#FFFFFF" stroke-width="1.33333" stroke-miterlimit="8" stroke-dasharray="5.33333 4" fill="none" fill-rule="evenodd"/><text fill="#FFFFFF" font-family="Calibri,Calibri_MSFontService,sans-serif" font-weight="700" font-size="20" transform="translate(916.348 194)">Date 2022</text><text fill="#FFFFFF" font-family="Calibri,Calibri_MSFontService,sans-serif" font-weight="400" font-size="13" transform="translate(916.348 218)">Lorem ipsum dolor sit amet,</text><text fill="#FFFFFF" font-family="Calibri,Calibri_MSFontService,sans-serif" font-weight="400" font-size="13" transform="translate(916.348 235)">consectetuer adipiscing elit.</text><text fill="#FFFFFF" font-family="Calibri,Calibri_MSFontService,sans-serif" font-weight="400" font-size="13" transform="translate(916.348 253)">Donec odio. Quisque volutpat</text><text fill="#FFFFFF" font-family="Calibri,Calibri_MSFontService,sans-serif" font-weight="400" font-size="13" transform="translate(916.348 270)">mattis eros. Nullam malesuada</text><text fill="#FFFFFF" font-family="Calibri,Calibri_MSFontService,sans-serif" font-weight="400" font-size="13" transform="translate(916.348 288)">erat ut turpis</text><text fill="#FFFFFF" font-family="Calibri,Calibri_MSFontService,sans-serif" font-weight="400" font-size="13" transform="translate(987.348 288)">.</text><text fill="#FFFFFF" font-family="Calibri,Calibri_MSFontService,sans-serif" font-weight="400" font-size="13" transform="translate(993.681 288)">Lorem ipsum</text><text fill="#FFFFFF" font-family="Calibri,Calibri_MSFontService,sans-serif" font-weight="400" font-size="13" transform="translate(916.348 306)">dolor sit amet</text><text fill="#FFFFFF" font-family="Calibri,Calibri_MSFontService,sans-serif" font-weight="400" font-size="13" transform="translate(991.848 306)">.</text><path d="M789 368.5C789 363.253 793.253 359 798.5 359 803.747 359 808 363.253 808 368.5 808 373.747 803.747 378 798.5 378 793.253 378 789 373.747 789 368.5Z" stroke="#FFC000" stroke-width="4" stroke-miterlimit="8" fill="#44546A" fill-rule="evenodd"/><text fill="#FFFFFF" font-family="Calibri,Calibri_MSFontService,sans-serif" font-weight="700" font-size="20" transform="translate(812.113 446)">Date 2022</text><text fill="#FFFFFF" font-family="Calibri,Calibri_MSFontService,sans-serif" font-weight="400" font-size="13" transform="translate(812.113 470)">Lorem ipsum dolor sit amet,</text><text fill="#FFFFFF" font-family="Calibri,Calibri_MSFontService,sans-serif" font-weight="400" font-size="13" transform="translate(812.113 487)">consectetuer adipiscing elit.</text><text fill="#FFFFFF" font-family="Calibri,Calibri_MSFontService,sans-serif" font-weight="400" font-size="13" transform="translate(812.113 505)">Donec odio. Quisque volutpat</text><text fill="#FFFFFF" font-family="Calibri,Calibri_MSFontService,sans-serif" font-weight="400" font-size="13" transform="translate(812.113 522)">mattis eros. Nullam malesuada</text><text fill="#FFFFFF" font-family="Calibri,Calibri_MSFontService,sans-serif" font-weight="400" font-size="13" transform="translate(812.113 540)">erat ut turpis</text><text fill="#FFFFFF" font-family="Calibri,Calibri_MSFontService,sans-serif" font-weight="400" font-size="13" transform="translate(883.113 540)">.</text><text fill="#FFFFFF" font-family="Calibri,Calibri_MSFontService,sans-serif" font-weight="400" font-size="13" transform="translate(889.446 540)">Lorem ipsum</text><text fill="#FFFFFF" font-family="Calibri,Calibri_MSFontService,sans-serif" font-weight="400" font-size="13" transform="translate(812.113 558)">dolor sit amet</text><text fill="#FFFFFF" font-family="Calibri,Calibri_MSFontService,sans-serif" font-weight="400" font-size="13" transform="translate(887.613 558)">.</text><path d="M799.5 394.5 799.5 562.983" stroke="#FFFFFF" stroke-width="1.33333" stroke-miterlimit="8" stroke-dasharray="5.33333 4" fill="none" fill-rule="evenodd"/></g></svg>